# File created by Blade
# Date/Time:  Wed Jan 21 14:58:19 2015
#---------------------------------------------------------
:version 1.10
:name HOM
:units
  mass 1.0
  length 1.000000
  angle deg
:documentation
     Acclaim Skeleton File
:root
   axis xyz
   order TX TY TZ RX RY RZ
   position 0.000000 0.000000 0.000000
   orientation 0 0 0
:bonedata
   begin
      id 1
      name Spine_dum
      direction 0.000000 1.000000 0.000000
      length 7.067664
      axis 0.0 0.0 0.0 xyz
   end
   begin
      id 2
      name LeftUpLeg_dum
      direction 1.000000 0.000000 0.000000
      length 4.013002
      axis 0.0 0.0 0.0 xyz
   end
   begin
      id 3
      name RightUpLeg_dum
      direction -1.000000 0.000000 0.000000
      length 4.013002
      axis 0.0 0.0 0.0 xyz
   end
   begin
      id 4
      name Spine
      direction 0.000000 1.000000 0.000000
      length 0.000000
      axis 0.0 0.0 0.0 xyz
      dof rx ry rz
   end
   begin
      id 5
      name Spine_dum1
      direction 0.000000 1.000000 0.000000
      length 15.039886
      axis 0.0 0.0 0.0 xyz
   end
   begin
      id 6
      name Spine_dum2
      direction 0.000000 1.000000 0.000000
      length 10.530368
      axis 0.0 0.0 0.0 xyz
   end
   begin
      id 7
      name Spine_dum3
      direction 0.000000 1.000000 0.000000
      length 10.530368
      axis 0.0 0.0 0.0 xyz
   end
   begin
      id 8
      name Head
      direction 0.000000 1.000000 0.000000
      length 4.527550
      axis 0.0 0.0 0.0 xyz
      dof rx ry rz
   end
   begin
      id 9
      name LeftShoulder
      direction 1.000000 0.000000 0.000000
      length 7.028855
      axis 0.0 0.0 -90.0 xyz
      dof rx ry rz
   end
   begin
      id 10
      name LeftArm
      direction 1.000000 0.000000 0.000000
      length 10.797705
      axis 0.0 0.0 -90.0 xyz
      dof rx ry rz
   end
   begin
      id 11
      name LeftForeArm
      direction 1.000000 0.000000 0.000000
      length 7.907442
      axis 0.0 0.0 -90.0 xyz
      dof ry rz rx
   end
   begin
      id 12
      name LeftHand
      direction 0.000000 0.000000 0.000000
      length 0.000000
      axis 0.0 0.0 -90.0 xyz
      dof rx ry rz
   end
   begin
      id 13
      name LeftHand_dum1
      direction 0.000000 0.000000 0.000000
      length 0.000000
      axis 0.0 0.0 -90.0 xyz
   end
   begin
      id 14
      name LeftHand_dum2
      direction 1.000000 0.000000 0.000000
      length 3.937000
      axis 0.0 0.0 -90.0 xyz
   end
   begin
      id 15
      name LeftHandThumb1
      direction 0.000000 0.000000 1.000000
      length 3.937000
      axis 0.0 0.0 -90.0 xyz
      dof rx rz ry
   end
   begin
      id 16
      name RightShoulder
      direction -1.000000 0.000000 0.000000
      length 7.028855
      axis 0.0 0.0 90.0 xyz
      dof rx ry rz
   end
   begin
      id 17
      name RightArm
      direction -1.000000 0.000000 0.000000
      length 10.797705
      axis 0.0 0.0 90.0 xyz
      dof rx ry rz
   end
   begin
      id 18
      name RightForeArm
      direction -1.000000 0.000000 0.000000
      length 7.907442
      axis 0.0 0.0 90.0 xyz
      dof ry rz rx
   end
   begin
      id 19
      name RightHand
      direction 0.000000 0.000000 0.000000
      length 0.000000
      axis 0.0 0.0 90.0 xyz
      dof rx ry rz
   end
   begin
      id 20
      name RightHand_dum1
      direction 0.000000 0.000000 0.000000
      length 0.000000
      axis 0.0 0.0 90.0 xyz
   end
   begin
      id 21
      name RightHand_dum2
      direction -1.000000 0.000000 0.000000
      length 3.937000
      axis 0.0 0.0 90.0 xyz
   end
   begin
      id 22
      name RightHandThumb1
      direction 0.000000 0.000000 1.000000
      length 3.937000
      axis 0.0 0.0 90.0 xyz
      dof rx rz ry
   end
   begin
      id 23
      name LeftUpLeg
      direction 0.000000 -1.000000 0.000000
      length 16.899758
      axis 0.0 0.0 0.0 xyz
      dof rx ry rz
   end
   begin
      id 24
      name LeftLeg
      direction 0.000000 -1.000000 0.000000
      length 17.389183
      axis 0.0 0.0 0.0 xyz
      dof rx ry rz
   end
   begin
      id 25
      name LeftFoot
      direction 0.000000 -0.258819 0.965926
      length 4.924528
      axis 15.0 0.0 0.0 xyz
      dof rx ry rz
   end
   begin
      id 26
      name LeftToeBase
      direction 0.000000 0.000000 1.000000
      length 2.952750
      axis 0.0 0.0 0.0 xyz
      dof rx ry rz
   end
   begin
      id 27
      name RightUpLeg
      direction 0.000000 -1.000000 0.000000
      length 16.899758
      axis 0.0 0.0 0.0 xyz
      dof rx ry rz
   end
   begin
      id 28
      name RightLeg
      direction 0.000000 -1.000000 0.000000
      length 17.389183
      axis 0.0 0.0 0.0 xyz
      dof rx ry rz
   end
   begin
      id 29
      name RightFoot
      direction 0.000000 -0.258819 0.965926
      length 4.924528
      axis 15.0 0.0 0.0 xyz
      dof rx ry rz
   end
   begin
      id 30
      name RightToeBase
      direction 0.000000 0.000000 1.000000
      length 2.952750
      axis 0.0 0.0 0.0 xyz
      dof rx ry rz
   end
:hierarchy
   begin
      root Spine_dum LeftUpLeg_dum RightUpLeg_dum
      Spine_dum Spine
      LeftUpLeg_dum LeftUpLeg
      RightUpLeg_dum RightUpLeg
      Spine Spine_dum1 Spine_dum2 Spine_dum3
      Spine_dum1 Head
      Spine_dum2 LeftShoulder
      Spine_dum3 RightShoulder
      LeftShoulder LeftArm
      LeftArm LeftForeArm
      LeftForeArm LeftHand
      LeftHand LeftHand_dum1 LeftHand_dum2
      LeftHand_dum1 LeftHandThumb1
      RightShoulder RightArm
      RightArm RightForeArm
      RightForeArm RightHand
      RightHand RightHand_dum1 RightHand_dum2
      RightHand_dum1 RightHandThumb1
      LeftUpLeg LeftLeg
      LeftLeg LeftFoot
      LeftFoot LeftToeBase
      RightUpLeg RightLeg
      RightLeg RightFoot
      RightFoot RightToeBase
   end

# File created by Blade
# Date/Time:  Wed Jan 21 14:58:10 2015
# Frame Rate: 120.000 fps
#------------------------------------------------------
:FULLY-SPECIFIED
:DEGREES
38
root 17.648777 35.320077 -23.274351 -170.776553 -4.783443 -178.702023
Spine -19.428787 -1.904574 1.768103
Head 9.447947 -1.075870 0.361295
LeftShoulder -12.516552 -34.757770 22.024548
LeftArm 3.263191 5.181352 -7.675089
LeftForeArm 12.126120 0.000000 -1.676877
LeftHand -6.127498 -0.000000 -11.387673
LeftHandThumb1 -26.253704 0.000000 33.147579
RightShoulder -11.874742 -2.841723 -11.237496
RightArm 5.778727 33.845159 9.552414
RightForeArm -36.658807 -0.000000 5.414079
RightHand -5.135998 -0.000000 12.337820
RightHandThumb1 -24.326973 -0.000000 -32.862282
LeftUpLeg -0.772610 4.665193 5.431206
LeftLeg -6.445687 -0.000000 0.000000
LeftFoot -19.975755 26.028442 -13.271328
LeftToeBase 26.732111 -0.000000 -0.000000
RightUpLeg -0.427825 -11.505711 -1.405112
RightLeg -3.695613 -0.000000 0.000000
RightFoot -21.136668 -21.362161 17.816806
RightToeBase 22.692193 -0.000000 -0.000000
39
root 17.655629 35.319935 -23.272801 -170.746554 -5.003290 -178.721099
Spine -19.472770 -1.900388 1.716187
Head 9.503690 -0.996779 0.369549
LeftShoulder -12.555367 -34.808018 22.065108
LeftArm 3.213314 5.146400 -7.695600
LeftForeArm 12.284772 -0.000000 -1.688597
LeftHand -6.082730 -0.000000 -11.301957
LeftHandThumb1 -26.253704 0.000000 33.147579
RightShoulder -11.842370 -2.801870 -11.256545
RightArm 5.616565 33.955993 9.468574
RightForeArm -36.646246 0.000000 5.406691
RightHand -5.145615 0.000000 12.380685
RightHandThumb1 -24.326973 -0.000000 -32.862282
LeftUpLeg -0.854010 4.500120 5.455665
LeftLeg -6.437195 -0.000000 0.000000
LeftFoot -19.924685 25.948691 -13.253865
LeftToeBase 26.723943 -0.000000 -0.000000
RightUpLeg -0.417951 -11.622849 -1.373651
RightLeg -3.721921 -0.000000 0.000000
RightFoot -21.188930 -21.506933 17.826127
RightToeBase 22.710294 -0.000000 -0.000000
40
root 17.662000 35.319662 -23.274190 -170.729808 -5.214069 -178.736349
Spine -19.508600 -1.846265 1.658712
Head 9.549425 -0.895072 0.406618
LeftShoulder -12.594566 -34.744173 22.059355
LeftArm 3.255649 5.091859 -7.707709
LeftForeArm 12.272581 -0.000000 -1.730344
LeftHand -6.050705 -0.000000 -11.298407
LeftHandThumb1 -26.253704 0.000000 33.147579
RightShoulder -11.870439 -2.766777 -11.257815
RightArm 5.523423 33.994003 9.388516
RightForeArm -36.700867 0.000000 5.429794
RightHand -5.264579 -0.000000 12.420456
RightHandThumb1 -24.326973 -0.000000 -32.862282
LeftUpLeg -0.910283 4.369918 5.474108
LeftLeg -6.452237 -0.000000 0.000000
LeftFoot -19.882285 25.898918 -13.241121
LeftToeBase 26.787624 -0.000000 -0.000000
RightUpLeg -0.388370 -11.728104 -1.354661
RightLeg -3.738909 -0.000000 0.000000
RightFoot -21.211357 -21.538199 17.921667
RightToeBase 22.525504 -0.000000 -0.000000
41
root 17.667721 35.318575 -23.274523 -170.717160 -5.435171 -178.759606
Spine -19.526722 -1.782783 1.590416
Head 9.563307 -0.739019 0.448994
LeftShoulder -12.608021 -34.707915 22.053709
LeftArm 3.236437 5.038819 -7.711836
LeftForeArm 12.284750 -0.000000 -1.718653
LeftHand -6.043051 -0.000000 -11.370509
LeftHandThumb1 -26.253704 0.000000 33.147579
RightShoulder -11.905915 -2.693106 -11.272538
RightArm 5.402050 33.981194 9.287764
RightForeArm -36.613473 0.000000 5.399188
RightHand -5.283176 -0.000000 12.383668
RightHandThumb1 -24.326973 -0.000000 -32.862282
LeftUpLeg -0.976478 4.207664 5.488471
LeftLeg -6.440441 -0.000000 0.000000
LeftFoot -19.851755 25.853255 -13.220252
LeftToeBase 26.775642 -0.000000 -0.000000
RightUpLeg -0.352191 -11.799501 -1.342972
RightLeg -3.754099 -0.000000 0.000000
RightFoot -21.338075 -21.723593 17.804831
RightToeBase 23.001451 -0.000000 -0.000000
42
root 17.673276 35.318110 -23.276089 -170.712515 -5.681530 -178.782751
Spine -19.536463 -1.756478 1.531533
Head 9.569651 -0.576219 0.503793
LeftShoulder -12.636138 -34.747133 22.064422
LeftArm 3.184785 5.039031 -7.700168
LeftForeArm 12.344037 -0.000000 -1.727509
LeftHand -6.055775 -0.000000 -11.334713
LeftHandThumb1 -26.253704 0.000000 33.147579
RightShoulder -11.970979 -2.693630 -11.270096
RightArm 5.408706 34.068061 9.272891
RightForeArm -36.701473 -0.000000 5.395453
RightHand -5.377106 -0.000000 12.398886
RightHandThumb1 -24.326973 -0.000000 -32.862282
LeftUpLeg -1.044233 4.036596 5.511634
LeftLeg -6.406340 -0.000000 0.000000
LeftFoot -19.811506 25.750663 -13.163884
LeftToeBase 26.776800 -0.000000 -0.000000
RightUpLeg -0.298406 -11.872987 -1.329440
RightLeg -3.784618 -0.000000 0.000000
RightFoot -21.408340 -21.872292 17.846628
RightToeBase 23.001516 -0.000000 -0.000000
43
root 17.678367 35.317739 -23.275051 -170.702282 -5.903758 -178.807626
Spine -19.544087 -1.717387 1.470787
Head 9.603171 -0.345970 0.579984
LeftShoulder -12.714175 -34.725033 22.100685
LeftArm 3.156425 5.012771 -7.706181
LeftForeArm 12.348140 0.000000 -1.719929
LeftHand -6.061340 -0.000000 -11.346196
LeftHandThumb1 -26.253704 0.000000 33.147579
RightShoulder -11.904039 -2.593971 -11.286480
RightArm 5.207039 33.996513 9.137856
RightForeArm -36.672610 -0.000000 5.390158
RightHand -5.448189 -0.000000 12.280266
RightHandThumb1 -24.326973 -0.000000 -32.862282
LeftUpLeg -1.113584 3.883228 5.519175
LeftLeg -6.397460 -0.000000 0.000000
LeftFoot -19.781027 25.723918 -13.158185
LeftToeBase 26.833818 -0.000000 -0.000000
RightUpLeg -0.267443 -11.944735 -1.318011
RightLeg -3.799049 -0.000000 0.000000
RightFoot -21.418576 -21.958127 17.965104
RightToeBase 22.656420 -0.000000 -0.000000
44
root 17.685141 35.317380 -23.273161 -170.673904 -6.112002 -178.829804
Spine -19.575590 -1.623449 1.382758
Head 9.627398 -0.129682 0.664930
LeftShoulder -12.724022 -34.660906 22.119865
LeftArm 3.093409 4.906443 -7.712430
LeftForeArm 12.371025 -0.000000 -1.713214
LeftHand -5.969859 -0.000000 -11.352591
LeftHandThumb1 -26.253704 0.000000 33.147579
RightShoulder -11.955783 -2.631611 -11.272024
RightArm 5.169871 34.093700 9.102456
RightForeArm -36.723396 0.000000 5.400932
RightHand -5.370499 -0.000000 12.312266
RightHandThumb1 -24.326973 -0.000000 -32.862282
LeftUpLeg -1.203399 3.750708 5.530832
LeftLeg -6.372274 -0.000000 0.000000
LeftFoot -19.747639 25.663015 -13.136247
LeftToeBase 26.844487 -0.000000 -0.000000
RightUpLeg -0.262618 -11.999641 -1.299296
RightLeg -3.805226 -0.000000 0.000000
RightFoot -21.535284 -22.135250 17.902304
RightToeBase 22.898615 -0.000000 -0.000000
45
root 17.692003 35.316798 -23.272302 -170.664835 -6.340079 -178.852516
Spine -19.587613 -1.530455 1.303187
Head 9.662909 0.032250 0.732545
LeftShoulder -12.753940 -34.617976 22.135106
LeftArm 3.084028 4.885016 -7.730327
LeftForeArm 12.353985 -0.000000 -1.758458
LeftHand -6.033531 -0.000000 -11.271469
LeftHandThumb1 -26.253704 0.000000 33.147579
RightShoulder -11.960951 -2.570792 -11.297241
RightArm 5.040700 34.204204 9.043520
RightForeArm -36.915187 -0.000000 5.410132
RightHand -5.399299 -0.000000 12.360312
RightHandThumb1 -24.326973 -0.000000 -32.862282
LeftUpLeg -1.271086 3.580429 5.548811
LeftLeg -6.357047 -0.000000 0.000000
LeftFoot -19.704260 25.619123 -13.123392
LeftToeBase 26.812078 -0.000000 -0.000000
RightUpLeg -0.232610 -12.115271 -1.278458
RightLeg -3.808757 -0.000000 0.000000
RightFoot -21.574068 -22.224330 17.893910
RightToeBase 22.849853 -0.000000 -0.000000
46
root 17.700385 35.316439 -23.273165 -170.663633 -6.586846 -178.861294
Spine -19.594067 -1.492362 1.255641
Head 9.678263 0.266936 0.800722
LeftShoulder -12.781477 -34.605330 22.136199
LeftArm 2.974017 4.832782 -7.673511
LeftForeArm 12.463072 -0.000000 -1.703906
LeftHand -6.031615 -0.000000 -11.283046
LeftHandThumb1 -26.253704 0.000000 33.147579
RightShoulder -11.961092 -2.600211 -11.317992
RightArm 5.006805 34.017258 9.004035
RightForeArm -36.567652 0.000000 5.354038
RightHand -5.406393 -0.000000 12.246580
RightHandThumb1 -24.326973 -0.000000 -32.862282
LeftUpLeg -1.339870 3.431049 5.583552
LeftLeg -6.331537 -0.000000 0.000000
LeftFoot -19.668708 25.547734 -13.068204
LeftToeBase 26.903216 -0.000000 -0.000000
RightUpLeg -0.182129 -12.187758 -1.252415
RightLeg -3.832444 -0.000000 0.000000
RightFoot -21.645224 -22.369964 17.964608
RightToeBase 22.928051 -0.000000 -0.000000
47
root 17.707466 35.316886 -23.270927 -170.639757 -6.843478 -178.880202
Spine -19.623377 -1.431708 1.200023
Head 9.717119 0.522086 0.851646
LeftShoulder -12.824103 -34.559999 22.138178
LeftArm 2.928457 4.838591 -7.650036
LeftForeArm 12.489346 -0.000000 -1.721168
LeftHand -6.037776 -0.000000 -11.275300
LeftHandThumb1 -26.253704 0.000000 33.147579
RightShoulder -11.929963 -2.583330 -11.318868
RightArm 4.890662 34.057629 8.908173
RightForeArm -36.585873 -0.000000 5.341826
RightHand -5.492319 0.000000 12.162109
RightHandThumb1 -24.326973 -0.000000 -32.862282
LeftUpLeg -1.442114 3.237675 5.607843
LeftLeg -6.296553 -0.000000 0.000000
LeftFoot -19.639428 25.507205 -13.062147
LeftToeBase 26.903380 -0.000000 -0.000000
RightUpLeg -0.159242 -12.305966 -1.220042
RightLeg -3.863754 -0.000000 0.000000
RightFoot -21.701885 -22.532689 18.009494
RightToeBase 22.925253 -0.000000 -0.000000
